<?xml version="1.0" encoding="utf-8"?>
<!-- Generator: Adobe Illustrator 25.4.1, SVG Export Plug-In . SVG Version: 6.00 Build 0)  -->
<svg version="1.1" id="svg" xmlns="http://www.w3.org/2000/svg" xmlns:xlink="http://www.w3.org/1999/xlink" x="0px" y="0px"
	 viewBox="0 0 400 103.1" style="enable-background:new 0 0 400 103.1;" xml:space="preserve">
<style type="text/css">
	.st0{fill-rule:evenodd;clip-rule:evenodd;fill:#FC1414;}
	.st1{fill-rule:evenodd;clip-rule:evenodd;fill:#9C843C;}
</style>
<g id="svgg">
	<path id="path0" class="st0" d="M323.5,45.8v28h5.2h5.2v-9v-9h1.6c2.5,0,2.5,0,3.5,1.7c1.3,2,1.9,3.1,2.7,4.5
		c0.4,0.7,0.9,1.5,1.2,1.9c0.2,0.4,1,1.5,1.7,2.6s1.4,2.1,1.5,2.3c0.2,0.2,1,1.4,1.8,2.7l1.5,2.3h5.4c4.8,0,5.4,0,5.3-0.3
		s-1.1-1.9-2.4-4.1c-0.6-0.9-1.3-2.1-1.7-2.7c-0.4-0.6-0.9-1.5-1.2-1.9c-0.3-0.5-0.9-1.4-1.3-2.1c-1.5-2.5-6.7-10.1-7.4-10.9
		l-0.7-0.8l0.4-0.3c0.2-0.2,0.4-0.3,0.5-0.4c0.1-0.1,1.6-1.9,2.6-3.2c0.8-1,2.9-3.6,4.4-5.4c0.8-0.9,1.7-2.1,2.2-2.6
		c0.4-0.5,1.1-1.3,1.5-1.8c2.1-2.6,2.5-3,2.6-3.2c0-0.1-1.7-0.2-5.4-0.1h-5.5l-0.6,0.5c-0.3,0.3-0.9,0.9-1.3,1.4s-1,1.4-1.5,1.9
		c-0.4,0.5-1.1,1.4-1.5,1.9s-0.8,1.1-0.9,1.2c-0.8,1-4.4,5.5-4.8,6c-1.4,1.8-1.7,2-3,2H334V33.5V17.8h-5.2h-5.2L323.5,45.8
		 M141,18.2c-18,1.5-30,20-23.9,37c2.1,5.8,6.7,11.6,11.5,14.4c0.5,0.3,0.9,0.5,0.9,0.6c0.1,0.1,0.8,0.4,1.6,0.8s1.7,0.8,2,0.9
		c2.7,1.2,6.7,2,10.6,2c21,0,34.5-21.7,25.1-40.5c-2-4-5.6-8.1-9.1-10.4c-0.6-0.4-1.2-0.8-1.3-0.9c-2-1.6-8.4-3.7-12.5-4
		C143.7,18,143.5,18,141,18.2 M146.8,28.3c5.5,1.1,9.8,4.8,11.9,10.3c1.2,3.2,1.4,10.9,0.2,14.3c-4.2,12.5-20,15.2-28.1,4.8
		c-2.6-3.4-3.7-8.8-3-15.1C128.8,33,137.6,26.4,146.8,28.3 M217.9,33.8c-3.2,0.5-6.1,2.1-9.2,5c-1,1-1.6,1.4-1.7,1.3
		c-0.1-0.1-0.3-0.6-0.6-1.2c-1.1-2.3-3.6-4.2-6.2-4.9c-3.8-1-7.6,0.3-11.3,3.7c-1.3,1.2-1.2,1.2-1.3-0.2s-0.5-2.2-1.3-2.8l-0.7-0.4
		h-3.7h-3.7v19.3v19.3h5.2h5.2V59c0-12,0.1-13.9,0.3-14.3c1.9-3.3,7.2-4,9.8-1.3c1.6,1.6,1.5,0.6,1.5,16v13.5h5.3h5.3L211,60
		l0.1-13.1l0.4-1.1c1.6-4.4,9-5.1,10.8-1c0.3,0.8,0.5,7.3,0.5,19.9v8.5h5.3h5.3l-0.1-13.3c-0.1-14.6-0.1-14.4-1.1-17.6
		C230.1,36,224.7,32.8,217.9,33.8 M260,34c-2.7,0.4-6.4,2.2-8.6,4.1l-0.5,0.4l-0.1-1.1c-0.3-2.6-0.9-3-5.8-3h-3.7v19.3V73h5.2h5.2
		V59.4V45.6l0.8-0.8c3.4-3.2,8.7-3.8,10.9-1.1c1.3,1.5,1.2,0.6,1.2,15.8v13.6h5.3h5.3v-13c0-15.6-0.1-16.3-1.9-19.9
		C271.3,35.6,265.8,33.1,260,34 M295.9,34.4c-8.9,1.9-14.8,9.2-14.5,18.1c0.2,8.2,2.3,13.8,6.4,16.9c0.4,0.3,1,0.8,1.2,1
		c0.8,0.7,4.1,2.2,5.7,2.6c7.9,2.1,15.6,0.4,21.6-4.7c0.9-0.8,1-0.5-1.1-3.1c-2.5-3.2-3.2-3.4-6.1-1.7c-2.5,1.5-2.7,1.6-4.1,2
		c-6.3,2-12.9-2.3-13-8.6c0-1.7-1.1-1.5,12.5-1.5h11.9l0.3-0.4c0.4-0.6,0.7-4.2,0.4-6.4c-0.5-5.3-2.9-9.1-7.4-12
		c-1-0.6-2.7-1.3-5.6-2.1C303,34.2,297.1,34.1,295.9,34.4 M360.2,34.3c0,0.1,0.1,0.5,0.3,0.9c0.2,0.4,0.6,1.5,1,2.5s0.8,1.8,0.8,1.9
		c0.1,0.1,0.4,0.8,0.7,1.6c0.3,0.8,0.8,1.9,1,2.5c0.3,0.6,0.6,1.4,0.7,1.7s0.5,1.3,0.9,2.1s1.2,2.6,1.8,4.1c2.2,5,2.8,6.4,3.5,8
		c0.4,0.9,1,2.2,1.2,2.9c0.3,0.7,0.6,1.4,0.7,1.5s0.4,0.8,0.8,1.7s0.8,1.9,1.1,2.5c0.9,2,0.9,2,0.6,2.9c-0.2,0.7-2.6,5.5-4.1,8.2
		c-1.1,2-2.7,5.2-2.8,5.6l-0.1,0.4l2.8,0.1c1.5,0.1,3.6,0.1,4.5,0.1h1.7l0.5-1c0.9-1.6,5.4-10.5,6.1-12.3c0.4-0.9,0.9-2,1-2.3
		c0.6-1.2,3.1-7,4.4-10.2c0.3-0.8,0.8-1.8,1-2.2c0.2-0.5,0.7-1.6,1-2.5s0.7-1.7,0.8-1.8c0.1-0.1,0.5-1.1,1-2.2
		c1.7-4.4,2.4-5.9,2.6-6.4c0.1-0.3,0.6-1.2,0.9-2.2c1.3-3.3,2.3-5.5,2.8-6.6c0.8-1.6,1.1-1.5-3.6-1.5c-4.6,0-4.7,0-5.7,1
		c-0.7,0.7-1,1.3-2.3,4.7c-0.4,0.9-0.8,2-1,2.3c-0.7,1.5-2.4,6-4.5,11.8c-1.3,3.5-1.6,4.3-1.7,4.4c-0.1,0.1-0.7-1.2-1.8-4
		c-0.4-1.2-1.1-3-1.5-4s-0.8-2.2-1-2.6c-0.2-0.4-0.5-1.3-0.8-2.1c-1.5-4-3.5-9.1-3.8-9.8c-0.1-0.3-0.5-0.8-0.9-1.1l-0.6-0.6h-5
		C361.8,34.2,360.2,34.2,360.2,34.3 M302.7,41.8c3.1,1.1,5.3,4,5.3,7v0.5h-7.9h-7.9l0.1-0.6C293,43.5,298,40.2,302.7,41.8"/>
	<path id="path1" class="st1" d="M36.5,0.4c0,0.3,0.2,0.7,0.8,1.1c0.9,0.9,0.9,1-0.1,1.8C34.9,5,31,5.9,28.7,5.2
		c-0.8-0.3-0.2,0.4,1,1l1.2,0.6l-0.4,0.3C29.4,8,26.6,8.7,24,8.7c-0.9,0-1.7,0.1-1.7,0.2c-0.1,0.2,1.2,0.8,2.6,1
		c2,0.4,1.1,0.9-1.6,0.9c-0.8,0-1.5,0.1-1.5,0.2c0,0.3,1.2,1.4,2.2,1.8c1,0.5,1.6,1.2,1.2,1.3c-0.1,0-0.5,0.3-0.9,0.7
		c-2.3,2.1-7.7,3.3-9.3,2c-0.8-0.6-1-0.2-0.2,0.5c0.7,0.7,1.4,0.8,3.5,0.8c2,0,2.3,0.1,2.3,0.5c0,0.7-2.7,2.4-3.8,2.4
		c-1.3,0-0.5,0.4,0.8,0.3c1,0,1.4-0.1,1.8-0.3l0.5-0.3l-0.4,0.5c-0.5,0.7-1.7,1.7-2,1.7c-0.5,0-2.3-0.4-3.6-0.8
		c-4-1.2-6.1-0.9-9.2,1.2C1.1,25.8,0,28.2,0,33.2C0,41.1,3.7,47.9,10.2,52c1.7,1.1,1.8,1.5,0.6,1.9c-0.4,0.1-0.8,0.3-0.9,0.4
		c-0.1,0.1-0.4,0.2-0.7,0.3c-0.8,0.2-0.8,0.5,0,0.6c1.2,0.2,3,0,4-0.6c0.9-0.5,1.6-0.7,1.6-0.3c0,0.5-0.8,1.5-1.5,2
		c-0.8,0.5-0.9,0.8-0.3,0.8c0.5,0,0.5,0.2-0.3,1.2c-0.5,0.6-1.3,1.9-1.8,3s-1.4,2.5-1.8,3.1s-0.8,1.1-0.7,1.1c0.2,0,2.1-1.3,2.9-2.1
		c3.4-3.2,1.7,0.8-2.1,5C8.5,69.2,7.9,69.9,8,70c0.2,0.2,2.8-1.3,5.5-3.2c1-0.7,1.4-0.9,1.4-0.5c0,0.3-0.5,1-2.4,2.9
		c-1,1-1.6,1.8-1.5,1.8s0.3,0,0.4-0.1c1.3-1,2.6-1.1,2.6-0.2c0,0.6-2.5,2.7-4.4,3.6c-0.7,0.3-0.8,0.6-0.2,0.5c0.2,0,1.2-0.2,2.2-0.3
		c2.6-0.3,5.2-1.1,5.7-1.8c0.2-0.3,0.6-0.2,0.7,0.2c0.2,0.6-1.7,4-3,5.5c-1.2,1.4-0.3,1.3,2.4-0.2c2.1-1.1,2.3-1.2,1.4-0.2
		c-0.5,0.5-0.6,0.8-0.6,1c0.1,0.4,0.3,0.4,0.6,0c0.3-0.5,1.3-1.2,1.7-1.2c0.4,0,0.3,0.5-0.8,3.6c-1.1,3.3-1,3.4,1.2,0.3
		c1.3-1.8,1.9-2,1.3-0.5c-0.2,0.5,0.4,0.3,0.9-0.3c0.6-0.8,0.8-0.7,0.4,0.2c-0.3,0.8-0.4,3.6-0.1,3.7c0.1,0,0.2-0.2,0.3-0.4
		c0.3-1.3,0.5-0.5,0.6,2c0.1,1.9,0.3,2.5,0.8,2.5c0.3,0,0.3-0.1,0.3-1.1c0-1.4,0.2-2.4,1.1-4.7c0.7-2,1-1.2,0.5,1.3
		c-0.4,1.7,0.3,3,0.9,1.9c0.2-0.4,0.3,0,0.5,2.3c0.1,1.7,0.2,2,0.4,1.9c0.1,0,0.3-0.2,0.3-0.5c0.1-0.6,0.8-3,1.2-3.6
		c0.5-0.9,1.1,0.4,1.4,2.9c0.3,2.3,1.6,6,2.1,6c0.1,0,0.2-0.6,0.2-1.3c0-2.8,0.7-5.7,1.3-5.7c0.7,0,2.7,4.2,3.2,6.4
		c0.6,3.1,0.7,3.5,0.9,3.4c0.3-0.1,0.6-1.7,0.7-3.5c0.2-2.7,0.3-2.8,1.1-1.6c0.9,1.4,1.5,3.3,2.1,6.3c0.2,1.2,0.9-0.2,0.9-1.9
		c0-0.7,0.1-1.4,0.2-1.5c0.5-0.8,2.4,3,2.7,5.6c0.1,0.7,0.2,1.3,0.2,1.4c0.2,0.2,0.4-0.2,0.4-0.7c0-0.3,0.1-1,0.2-1.5
		c0.1-0.6,0.2-1.4,0.2-2c0-1.4,0.2-2.8,0.4-2.8s2,3.7,2,4.1c0,1.5,0.6,2.5,1.2,2.1c0.3-0.2,0.4-0.2,0.9,0.1c0.8,0.4,1,0.1,1-1.2
		c0-1.3,1.1-4.3,1.8-4.9c0.5-0.4,0.6,0.1,0.6,2c0,1.8,0.5,4.6,0.9,4.6c0.1,0,0.1-0.4,0.1-0.8c0-1,0.3-2.1,1.3-4
		c1.2-2.4,1.5-2.4,1.9,0c0.3,2.2,0.9,2.6,1,0.7c0.3-2.7,2.6-7.9,2.6-5.7c0,0.6,0.3,2,0.8,4.7c0.2,0.9,0.5,0.8,0.6-0.3
		c0.2-2.4,0.9-4.1,2.9-8l0.6-1.2l0.7,1.2l0.7,1.2l0.1,2.4c0.1,2.6,0.1,2.7,0.9,1.5c0.6-1,0.9-1.8,1.3-4.2c0.4-2.1,0.7-3.3,1.1-3.9
		c0.2-0.4,0.5,0,1.5,2.8c0.6,1.7,0.9,1.3,1.2-1.5c0.1-1.2,0.3-1.4,0.7-0.9c0.4,0.5,0.4,0.1,0.3-1.1c-0.2-1.3-0.2-2.9,0-3.4
		c0.2-0.6,1.7,3.4,1.7,4.7c0,1.1,0.2,1.6,0.5,1.7s0.5-0.7,0.5-2.7c0-1.8,0.2-2.2,0.6-1.5c0.8,1.2,1-1.4,0.3-3.4
		c-0.3-0.8-0.1-0.8,0.8,0l0.6,0.6l-0.1-0.7c-0.2-1,0.1-0.9,1,0.2c0.4,0.5,0.8,1,0.8,1.1c0.1,0.1,0.4,0.5,0.6,1
		c1.3,2,0.8,0.1-0.7-3.5c-0.6-1.4-0.4-2.1,0.5-1.4c0.3,0.2,0.7,0.4,1,0.5l0.5,0.1l-0.5-0.6c-0.9-1-0.7-1.5,0.3-0.9
		c3,2,5,2.6,3.7,1.1c-1.2-1.5-3.4-5.8-3.1-6.1c0.2-0.2,1.8,0.5,3.3,1.3c0.6,0.3,4,1.4,4.8,1.5c0.9,0.1,1-0.2,0.2-0.7
		c-0.5-0.3-1.5-1.3-3.3-3.3c-1-1.1-1-1.2,0.8-0.3c1.9,0.9,1.9,0.8,0.3-0.8c-2.4-2.4-3.9-5.1-2-3.5c1.7,1.4,6,4,6.2,3.8
		c0.1-0.1-0.6-0.8-1.5-1.6c-3.2-3.1-5.2-7.5-2.3-5c1.6,1.3,3.3,2.5,3.3,2.3c0-0.1-0.3-0.6-0.7-1.2c-0.4-0.6-1-1.4-1.2-1.7
		c-0.2-0.4-0.9-1.4-1.5-2.3c-0.6-0.9-1.3-2-1.6-2.4c-0.7-0.9-0.7-0.9,0.1-0.9c0.9,0,1-0.3,0.3-0.7c-1-0.5-1.8-1.5-1.8-2.2
		c0-0.2,0.1-0.2,0.5,0c1.3,0.7,5.4,0.8,4.5,0.1c-0.1-0.1-1.7-0.8-1.8-0.8c-0.1,0-0.4-0.2-0.8-0.4l-0.7-0.4l1-0.6
		c10.2-6.2,14.4-21.1,8-27.8c-3-3.1-6.1-4-10.4-2.8c-3.4,0.9-3.6,0.9-4.6,0.5c-1.4-0.6-0.9-0.9,0.6-0.4c1.1,0.3,2.1,0.3,2.1,0
		c0-0.1-0.2-0.3-0.6-0.4c-1.1-0.2-2-0.7-2.9-1.5c-1.1-1-1.1-1.1,0.3-1.3c2.4-0.2,4.9-0.9,4.9-1.3c0-0.2-0.1-0.2-1.2,0.1
		C85,18,81.8,17.1,79,14.8c-0.9-0.8-1-1-0.3-1.2c0.9-0.2,2.7-1.8,2.7-2.4c0-0.2-0.2-0.2-0.9-0.2c-0.5,0-1.4-0.2-2-0.4l-1.1-0.4
		l1-0.2c3.6-0.7,4-1.2,1.1-1.3c-3.2-0.1-7.1-1.6-5.8-2.2c2.1-0.9,2.2-1.3,0.1-1.2C72,5.4,70.3,5.1,68.1,4c-0.8-0.4-1.8-0.8-2.2-1
		C65,2.6,65,2.4,65.8,2c0.6-0.3,1.4-1.4,1.4-1.8c0-0.3-0.6-0.2-1.9,0.4L64,1.2h-3.3c-3.1,0-3.4,0-5-0.5C53.3,0,48.3,0.1,45.4,0.9
		c-2.2,0.6-6,0.3-7.6-0.6C36.5-0.1,36.5-0.1,36.5,0.4 M43.4,6.9c2.3,0,2.8,0.1,3.3,0.4c1.4,0.7,1.4,1.3,0,0.6
		c-1.1-0.6-2.2-0.5-3.4,0.2c-1.1,0.6-1,0.8,0.9,1.3c1.6,0.4,3.7,1.6,3.5,1.9c-0.1,0.2-1.3-0.2-1.7-0.5c-0.6-0.5-4.9-1.3-7-1.3
		c-1.2,0-5.4-0.4-5.5-0.5c-0.3-0.3,0.3-0.4,2.7-0.5c3.6,0,5.6-0.6,3.8-1c-2.2-0.6-2.9-0.8-2.7-1c0.1-0.2,0.5-0.2,1.8,0.1
		C40.2,6.8,41.6,6.9,43.4,6.9 M66.4,6.5c0.2,0.3-0.5,0.5-2.1,0.8c-2.2,0.4-2.2,0.5-0.3,0.8c0.7,0.1,2.3,0.3,3.6,0.4
		c2.2,0.1,2.7,0.2,2.5,0.5c-0.1,0.1-4.5,0.6-5.8,0.6c-2.2,0-6,0.8-7.5,1.6c-0.8,0.4-1.3,0.5-1.3,0.2c0-0.2,2-1.3,3.1-1.7
		c0.5-0.2,1.2-0.4,1.6-0.6C61,8.8,61.1,8.4,60.5,8c-0.6-0.4-3-0.3-4,0.1c-0.7,0.3-0.8,0.3-1,0.1c-0.4-0.4,0.7-0.8,3-0.9
		c3.3-0.3,7.4-0.7,7.4-0.7C66.1,6.3,66.3,6.3,66.4,6.5 M35.4,12.6c0.9,0.1,0.8,0.3-0.2,0.5c-0.5,0.1-1.2,0.3-1.5,0.4
		c-0.4,0.2-0.9,0.3-1.1,0.3c-0.3,0-0.6,0.2-0.8,0.4s-0.8,0.5-1.3,0.7c-1.8,0.5-3.8,1.9-7.6,5.5c-0.9,0.8-1.7,1.4-1.8,1.4
		c-0.1,0,0.2-0.3,0.6-0.7c0.4-0.4,1.1-1.1,1.6-1.7c0.4-0.6,1-1.3,1.3-1.6c0.6-0.6,0.8-1.2,0.3-0.9c-0.2,0.1-0.5,0.2-0.9,0.2
		c-1,0.1-0.5-0.3,1-0.9c0.8-0.3,1.8-0.8,2.2-1c0.4-0.2,1-0.4,1.2-0.5c1.5-0.3,1.6-0.8,0.2-0.9c-1.1-0.1-2-0.5-1.9-0.9
		c0-0.1,1-0.1,2.6-0.1c1.4,0,3.1,0,3.8-0.1C34.7,12.5,34.7,12.5,35.4,12.6 M75.2,12.7c2.6,0,2.6,0.4,0.1,1c-1.6,0.4-1.6,1.1,0.1,1.1
		c0.7,0,3.4,1.1,4.1,1.7L80,17l-0.5,0.2c-0.7,0.2-0.7,0.4,0.3,1.4c2.4,2.6,3.1,3.3,2.9,3.3c-0.3,0-1.1-0.6-3.2-2.4
		c-3.8-3.4-7.7-5.7-10.9-6.2c-2.3-0.4-1.3-0.7,2-0.5C72.2,12.7,74.2,12.7,75.2,12.7 M41.9,14.3c0.9,0.3,0.2,0.5-2.2,0.5
		c-1.4,0-2.5,0.1-3.1,0.3c-1.7,0.5-2.4,0.2-1.2-0.5C36.5,14,40.7,13.8,41.9,14.3 M67.2,14.3c1.2,0.3,2,0.8,1.9,1.1s-0.7,0.3-1.6-0.1
		c-0.7-0.3-1.1-0.4-3.8-0.4c-3.1,0-3.4-0.1-2.8-0.4C62,13.9,65.5,13.8,67.2,14.3 M39.8,16.5c0.3,0.1,0.6,0.4,0.7,0.7
		c0.1,0.3,0.4,0.6,0.8,0.8c0.7,0.3,0.7,0.5,0.1,0.5c-0.6,0-1.8,0.5-2.4,0.9c-0.3,0.2-0.6,0.4-0.7,0.4c-0.1,0-0.7,0.5-1.4,1
		c-0.6,0.6-1.4,1.2-1.7,1.5c-2.1,1.9-2.4,1.4-0.5-0.7c0.8-0.9,1.4-1.6,1.4-1.7c0-0.4-0.5-0.1-1.1,0.6c-1.3,1.5-4.2,3-7.4,3.9
		c-1.7,0.4-4.8,0.7-4.8,0.3c0-0.2,0.2-0.2,0.9-0.1c1.6,0.2,9-3,10-4.2c0-0.1,0.4-0.3,0.7-0.6c0.4-0.3,0.7-0.7,0.9-1
		c0.1-0.3,0.5-0.7,0.7-0.8c0.7-0.4,0.5-0.6-0.6-0.5c-1,0.1-2.1,0.5-3.7,1.2c-1.3,0.6-1.8,0.6-1,0C33,16.9,37.7,15.8,39.8,16.5
		 M67.3,16.5c1,0.1,1.5,0.3,2,0.6c0.3,0.2,0.7,0.4,0.8,0.4c0.1,0,0.2,0.1,0.2,0.2c0,0.2-1.3,0.2-2.2,0c-0.8-0.2-1.6,0.1-0.9,0.3
		c0.1,0,0.5,0.4,0.9,0.7c0.9,0.9,2.5,1.8,5.8,3.4c1.5,0.8,2.8,1.5,2.9,1.6s0.2,0.2,0.4,0.2c0.2,0,0.6,0.2,0.9,0.5
		c0.6,0.4,0.7,0.5,1.6,0.4c0.8-0.1,1,0,0.9,0.1c-0.1,0.3-2.1,0.2-2.9-0.1c-0.3-0.1-0.9-0.3-1.3-0.3c-1.1-0.2-3.4-1.3-6.6-3.3
		c-1.8-1.1-2.4-0.9-1.1,0.5c1.8,1.9,1.5,2.3-0.4,0.6c-0.7-0.6-1.7-1.4-2.3-1.8c-1.2-0.8-1.9-1-1.1-0.3c1.6,1.4,1.7,2.2,0.1,1.1
		c-1.3-0.9-1.8-1-2.8-0.7c-0.4,0.1-1,0.2-1.7,0.1c-0.8-0.1-1.2,0-1.6,0.2c-1.1,0.5-1.5,0.3-0.8-0.5c0.6-0.6,2.1-1,4.2-0.9
		c2.2,0.1,2.2-0.7,0-0.9c-1.3-0.1-1-0.8,0.3-0.8c0.9,0,1-0.1,0.5-0.4C62.2,16.7,64.5,16.2,67.3,16.5 M48.4,18.7
		c0.4,0.8,0.3,1.3-0.1,0.9c-0.4-0.2-0.8-1.3-0.7-1.5S48.2,18.2,48.4,18.7 M55.7,18.7c-0.1,0.7-0.5,1.1-0.7,0.9
		c-0.1-0.1-0.1-0.4,0.1-0.8C55.5,18,55.9,17.9,55.7,18.7 M72.2,18.4c0,0.2-0.1,0.2-0.3,0.1c-0.5-0.1-0.6-0.4-0.1-0.4
		C72,18.2,72.2,18.3,72.2,18.4 M44.1,19.8c0.4,0.2,1,0.5,1.1,0.7c0.2,0.2,0.4,0.5,0.5,0.6c0.5,0.5,0.1,0.5-1.2-0.1
		c-1.1-0.5-1.6-0.5-2.3-0.1C42,21,41.8,21,41.3,20.7c-0.8-0.5-0.9-0.5-2.4,0.3s-1.8,0.8-1.2,0.3c0.2-0.2,0.4-0.5,0.4-0.5
		C38.2,19.6,41.8,19,44.1,19.8 M44.9,22.5c1,0.6,1.9,1.4,1.9,1.7c0,0.3-0.8,0.2-1.1-0.1c-0.8-0.8-4-1.7-4.8-1.4
		c-0.4,0.2-0.3,0.7,0.1,0.7c0.6,0,1.4,0.3,1.4,0.5c0,0.1-0.3,0.1-0.9,0.1c-0.6-0.1-0.9-0.1-1.1,0.1C40,24.4,38,24.6,38,24.3
		C38.2,22.4,42.7,21.2,44.9,22.5 M62.3,22.1c0.5,0.1,1.1,0.4,1.3,0.6s0.5,0.3,0.7,0.3c0.3,0,2.2,1.8,2.2,2s-0.6,0.1-1.1-0.2
		c-0.3-0.2-0.8-0.4-1.5-0.5c-1.3-0.1-2.1-1-0.9-1c0.5,0,0.4-0.3-0.1-0.5c-1.3-0.4-3.3,0-4.4,0.7c-1.6,1-2.5,1-1.3-0.1
		c0.4-0.4,0.8-0.7,0.9-0.7c0.1,0,0.4-0.2,0.6-0.4c0.4-0.3,1.1-0.5,2.5-0.6C61.3,21.8,61.8,21.9,62.3,22.1 M94.7,22.3
		c2.6,0.8,5.9,3.8,6.6,6c1,2.9,0.6,8.3-0.7,11.6c-0.7,1.8-0.9,2.2-1.8,3.6c-2.9,4.7-9,10.2-9,8.1c0-0.1,0.6-0.7,1.3-1.2
		c1.4-1.1,1.8-1.6,2.2-2.9c0.2-0.7,0.4-0.9,1.8-1.9c1.8-1.3,2.7-2.1,2.9-2.7c0.2-0.7,0-0.7-0.8-0.1c-0.3,0.2-0.4,0.2-0.8-0.1
		c-0.5-0.4-0.5-0.4-0.7,0c-1.2,1.7-1.8,2.4-2.5,2.9c-0.6,0.5-0.9,0.8-1.4,1.8c-1,2.1-2.8,3.4-2.2,1.5c0.3-0.8,0.1-1-0.4-0.5
		c-0.4,0.4-0.6,0.2-0.2-0.3c0.2-0.2,0.2-0.5,0-1c-0.3-1.1-0.3-1.2,1.1-2.5c1.8-1.8,1.6-2.4-0.4-1s-2.5,0.5-0.5-0.9
		c4.8-3.4,5.4-9,1.3-11.4c-1.9-1.1-2-1.2-1.6-1.6c0.7-0.7,3.1,0.7,4.7,2.9c1.3,1.7,1.2,0.1-0.1-1.9c-0.9-1.3-0.8-1.5,1.2-2.5
		c2.7-1.4,4.4-0.6,5.6,2.8c0.7,1.8,0.9,1.7,0.8-0.2c-0.1-2-0.7-3.3-1.9-4.6c-2.8-2.9-6.2-2.1-11.7,2.9c-1.9,1.7-2.3,1.8-2.9,0.5
		c-1-2.6,0.3-5.6,2.8-6.6C90.4,21.9,92.7,21.7,94.7,22.3 M12.7,22.8c4.5,0.6,6.7,3.4,5.9,7.2l-0.1,0.6l-2.3-1.8
		c-6.2-5-8.6-5.6-11.4-2.7c-1.9,2-2.7,3.8-2.4,5.6c0.2,0.8,0.3,0.7,0.8-0.4c1.5-4,4.4-5,7-2.6c0.6,0.5,0.6,0.8-0.1,1.5
		c-0.9,1.1-1.1,1.7-1,2.8c0,0.5,0.5,0.3,1-0.3c2-2.7,3.8-3.7,4.9-2.7c0.5,0.4,0.4,0.6-1.2,1.4c-4.4,2.3-4.7,6.8-0.7,11.1
		c1.6,1.7,2,2.8,0.6,1.5c-0.4-0.4-0.9-0.7-1.1-0.7s-0.5-0.2-0.8-0.4c-0.9-0.7-1.7-1.1-1.7-0.7c0,0.3,0.7,1,2.1,2
		c1.1,0.8,1.5,1.3,1.4,1.8c0,0.1,0.1,0.5,0.3,0.8c0.3,0.6,0.3,0.6,0,0.8s-0.3,0.3-0.1,0.6c0.5,1-0.7,2-1.4,1.2
		c-0.2-0.2-0.6-0.6-0.9-0.9c-0.3-0.3-0.6-0.9-0.8-1.3C10.5,46.7,7.2,43,6.9,43c0,0-0.2,0.1-0.4,0.2c-0.4,0.3-0.7,0.2-1-0.5
		c-0.3-0.6-0.8-0.8-0.8-0.3s0.7,1.4,1.9,2.4c0.6,0.5,1.4,1.1,1.6,1.3s0.8,1,1.3,1.8c0.6,1,1,1.6,1.4,1.8c1.9,1.1,2.9,3.4,1.1,2.4
		C5.9,49,0.7,40.7,0.7,34.4c0-2.4,1.2-6.9,2.2-8C5.5,23.2,8.2,22.2,12.7,22.8 M61.7,23.8c0,0.1-0.1,0.2-0.2,0.3
		c-0.3,0.3,1.5,1.1,2.3,1.1c0.7,0,1.3,0.3,1.3,0.7c0,0.1-0.6,0.1-1.3,0.1c-1.2,0-1.3,0-1.6,0.4c-0.4,0.6-1.3,1-1.9,0.9l-0.5-0.1
		l0.5-0.4l0.5-0.4h-0.5c-0.5,0-0.9,0.3-1.2,1.1c-0.2,0.4-0.3,0.5-0.8,0.5c-0.7,0-1-0.3-0.7-0.7c0.5-0.8,0.2-1-0.7-0.6
		c-0.8,0.4-1.3,0.2-0.8-0.3c0.2-0.2,0.5-0.3,0.6-0.3s0.3-0.1,0.6-0.3c0.2-0.2,0.7-0.4,1.1-0.4c0.3-0.1,0.7-0.2,0.8-0.4
		c0.1-0.1,0.4-0.3,0.8-0.3c0.3-0.1,0.7-0.3,0.9-0.5C61.2,23.7,61.7,23.5,61.7,23.8 M37.6,24.9c-0.3,0.2-0.9,0.3-0.9,0.1
		c0,0,0.2-0.2,0.5-0.3C37.7,24.5,38,24.6,37.6,24.9 M44.2,24.9c0.2,0.1,0.6,0.2,0.8,0.2c0.4,0,2.4,1,2.5,1.3c0.1,0.2-0.9,0.3-1,0
		c-0.1-0.1-0.3-0.2-0.5-0.2c-0.5,0-0.5,0.2-0.2,0.6c1.1,1.2,1.3,1.7,0.8,1.7c-0.4,0-1.6-0.7-1.6-0.9c0-0.3-0.3-0.5-0.5-0.3
		c-0.4,0.4-3.3-0.6-3.5-1.2c-0.1-0.2-0.4-0.3-1.1-0.3c-1.4,0-1.4-0.6,0-0.9c0.3-0.1,1-0.2,1.6-0.3C42.5,24.5,43.5,24.6,44.2,24.9
		 M56.3,24.8c-0.1,0.1-0.4,0.2-0.5,0.2c-0.3-0.2,0-0.4,0.4-0.4C56.5,24.5,56.5,24.5,56.3,24.8 M31.2,26.1c-0.2,0.2-0.5,0.4-0.5,0.4
		c-0.2,0-1.4,0.8-2,1.4c-1.4,1.3-3.1,2.7-3.6,2.8c-0.3,0.1-0.6,0.4-0.7,0.6c-0.2,0.5-1.6,1.2-1.9,1.1c-0.2-0.1-0.1-0.2,0.2-0.5
		l0.4-0.4l-0.8,0.1c-0.4,0.1-1.1,0.1-1.5,0.1s-0.8,0-1,0.1s-0.3,0.1-0.5-0.2c-0.2-0.3-0.1-0.3,0.3-0.4c0.3-0.1,0.9-0.2,1.4-0.3
		c0.5-0.1,1.1-0.2,1.4-0.2s0.6-0.1,0.7-0.2s0.6-0.4,1-0.5c0.5-0.1,0.9-0.3,0.9-0.4c0.1-0.2,3.4-2.4,4.7-3.1c0.5-0.3,0.9-0.6,0.8-0.6
		s0.1-0.1,0.3-0.1C31.6,25.5,31.6,25.6,31.2,26.1 M72.8,25.9c0.3,0.1,1.1,0.6,1.8,1.1c0.7,0.5,1.8,1.1,2.3,1.4s1.2,0.8,1.5,1
		c0.3,0.3,0.7,0.5,1,0.6c1.1,0.4,3.8,1.2,4.1,1.2c0.2,0,0.4,0.1,0.6,0.2c0.2,0.2,0,0.2-1.2,0.2s-1.4,0-1.8,0.4s-0.5,0.4-0.8,0.2
		c-0.2-0.1-0.5-0.4-0.8-0.6c-0.2-0.2-1.6-1.3-3.1-2.6c-1.5-1.3-3.1-2.5-3.5-2.7C71.8,25.9,71.8,25.4,72.8,25.9 M57.3,28.8
		c-0.1,0.2-0.3,0.3-0.5,0.3c-0.5-0.1-0.5-0.4,0-0.7C57.3,28.1,57.6,28.3,57.3,28.8 M47.2,29.7c3.3,0.5,9.7,0.3,11-0.4
		c0.2-0.1,0.4,0,0.6,0.3c0.3,0.4,0.5,0.5,1.2,0.6c0.5,0,1.1,0.2,1.4,0.4c0.9,0.6,1.5,0.8,4.2,1.2c0.7,0.1,1.5,0.9,1.5,1.4
		S66.8,33.6,65,33c-1.8-0.6-2-0.6-2.3-0.1c-0.3,0.4-0.3,0.4-3,0.1c-2.8-0.2-3.8-0.2-3.8,0.2c0,0.3-0.4,0.6-1.3,0.8
		c-0.4,0.1-0.8,0.3-0.8,0.3c-0.1,0.3,0.7,0.3,1.6-0.1c0.5-0.2,1.4-0.3,1.8-0.3s1.4-0.1,2.1-0.2c1.5-0.2,4.5,0.2,6,0.9
		c0.2,0.1,0.8,0.4,1.4,0.6c3.3,1.4,4.8,2.4,5.5,3.4c0.5,0.8,0.8,1,1.1,1c0.4,0,0.9,0.7,0.9,1.4c0,0.9,0.5,1,0.8,0.2
		c0.1-0.2,0.3-0.4,0.4-0.4c1.6,0-2.8-4.9-4.6-5.2c-0.6-0.1-0.9-0.5-0.6-0.7c1.5-0.9,6.2,3.2,6.4,5.7c0,0.5,0.1,1.1,0.2,1.4
		c0.2,0.8,0.2,0.9-0.1,0.8c-0.3-0.1-0.3,0-0.4,0.5c-0.1,0.3-0.3,0.9-0.6,1.3c-0.7,1-0.9,1.6-1.4,4.2c-0.2,1.3-0.6,2.8-0.8,3.3
		c-0.2,0.5-0.3,1.1-0.3,1.4c0,0.7-0.3,1.3-0.7,1.4c-0.3,0.1-0.7,0.8-1.5,2.4c-1.9,3.6-2.9,4.8-3.9,4.2c-0.3-0.1-0.7-0.3-1-0.3
		c-0.5,0-1.6-0.6-1.6-0.9c0-0.2-1-0.8-1.3-0.8s-0.2,0.3,0.4,1.1c0.7,0.9,0.7,1.4,0.1,1.3c-0.6-0.1-0.5,0.1,0.5,1.4
		c1.4,1.7,2.1,3,3,6.1c0.4,1.2,0.5,3.1,0.3,4.4c-0.2,1.1-0.1,1.6,0.3,1.6c1,0,0.6,2.3-0.6,3.1c-0.1,0.1-0.5,0.4-0.8,0.6
		c-0.9,0.8-3.1,1.9-4.3,2.1c-0.6,0.1-1.4,0.3-1.8,0.5c-0.7,0.2-1.6,0.3-8.3,0.2c-8.8-0.1-9.4-0.2-12.1-1.6c-3.3-1.7-6.3-4.9-4.6-4.9
		c0.5,0,0.6-0.8,0.3-1.9c-0.6-2.5,1.3-7.9,3.5-10.3c0.5-0.5,0.5-0.6,0.1-1c-0.5-0.4-0.4-0.6,0.3-1.5c0.6-0.8,0.8-1.1,0.5-1.1
		c-0.2,0-2,1.3-2,1.5c0,0.3-0.5,0.4-0.8,0.1c-0.3-0.3-0.3-0.2-0.7,0.1c-1.4,1.2-4.8-1.5-4.8-3.9c0-1.2-0.3-1.9-0.9-2.5
		c-0.4-0.4-0.6-0.8-0.7-1.2s-0.4-1.7-0.7-3.1c-0.3-1.3-0.7-3.1-0.9-3.8C28.3,46,28,45.2,27.9,45c-0.5-0.6-0.7-1.2-0.7-1.8
		c0-0.7-0.3-0.9-0.5-0.2c-0.1,0.3-0.2,0.5-0.3,0.5c-0.4,0,0-2.5,0.4-2.9c0.1-0.1,0.1-0.2,0.1-0.4c0-1.9,5.3-6.2,6.1-5
		c0.2,0.3-0.3,0.7-0.7,0.7c-0.6,0-1.5,0.6-1.5,0.9c0,0.3-0.5,0.6-1,0.6c-0.2,0-0.4,0.2-0.5,0.4s-0.4,0.7-0.7,1.1
		c-0.7,0.9-0.8,1.7-0.2,2.4l0.4,0.5l0.3-0.6c0.2-0.4,0.8-1,1.3-1.4s1.1-1.1,1.3-1.4c1.1-1.7,9-4.6,11.7-4.3c0.5,0.1,1.5,0.2,2.4,0.2
		c0.9,0.1,2,0.3,2.6,0.4c1,0.3,1.7,0.3,1.5-0.1c0-0.1-0.4-0.2-0.9-0.3c-0.8-0.1-1.4-0.5-1.4-0.9c0-0.1-0.2-0.2-0.6-0.2
		c-0.3,0-1.1-0.1-1.7-0.2c-0.9-0.1-1.2-0.1-1.8,0.1c-0.8,0.3-2.8,0.4-3.1,0c-0.2-0.3-1.2-0.3-1.4-0.1c-0.1,0.1-0.6,0.2-1.1,0.3
		s-1.1,0.2-1.4,0.3c-0.7,0.1-0.7-0.1,0.1-0.9c0.6-0.6,0.7-0.7,2.1-0.9c1.2-0.2,1.8-0.3,2.7-0.8c0.7-0.4,1.5-0.7,2-0.7
		c0.6-0.1,0.9-0.2,1.2-0.5s0.5-0.4,0.7-0.3C45.5,29.4,46.3,29.6,47.2,29.7 M71,30.4c1.2,0.5,1.4,0.6,1.3,1.2
		c-0.1,0.3,0.1,0.5,1.2,1.2c0.9,0.6,1.4,1.2,1.8,1.8c1.1,1.9,0.4,1.8-1.6-0.2C73,33.7,70,32,68.6,31.6c-0.4-0.1-0.4-0.6,0-0.6
		c0.2,0,0.2-0.1,0.2-0.3C68.5,29.9,69.3,29.8,71,30.4 M35,30.6c0,0.2,0.1,0.5,0.2,0.5c0.3,0.2,0,0.5-1.9,1.4
		c-2.7,1.3-5.1,3.1-5.1,3.9c0,0.1-0.1,0.2-0.3,0.2c-0.5,0,0.4-2,1.3-2.8c0.3-0.3,0.9-0.8,1.3-1.1c0.6-0.5,0.8-0.8,0.8-1.2
		C31.5,30.3,35,29.5,35,30.6 M46.2,30.9c-2.1,0.2-4.7,0.9-4.7,1.2c0,0.5,2,0.3,2.8-0.2c0.4-0.3,0.9-0.3,6.3-0.3c5.6,0,7-0.1,5.8-0.5
		C55.9,31,47.5,30.8,46.2,30.9 M58.4,31c-0.1,0.1-0.3,0.2-0.6,0.2h-0.4l0.4,0.2c0.2,0.1,0.7,0.3,1.1,0.5c0.8,0.3,3.6,0.6,3.6,0.4
		c0-0.1-0.4-0.3-1-0.4c-0.5-0.1-1.3-0.4-1.7-0.5s-0.9-0.3-1-0.3C58.7,30.8,58.5,30.9,58.4,31 M26.6,31.3c0,0.1-0.2,0.4-0.4,0.7
		c-0.2,0.3-0.7,0.9-1.1,1.3c-0.8,1.1-2.9,3-4.5,4.2c-0.7,0.5-1.6,1.3-1.9,1.8C18,40.3,18,40,19,37.7c1.2-2.7,2.5-4.1,5.4-5.5
		c0.5-0.2,1.1-0.6,1.4-0.8C26.2,31,26.5,31,26.6,31.3 M78.4,31.9c0.6,0.3,1.2,0.6,1.3,0.6c0.1,0,0.2,0.1,0.3,0.2
		c0,0.1,0.4,0.4,0.8,0.6c1.9,0.9,4.4,4.1,4.7,6c0.1,0.7-0.4,0.7-0.7,0.1c-0.4-0.7-1.1-1.4-3-2.7c-1.6-1.1-2.2-1.7-3-2.7
		c-0.6-0.7-1.3-1.6-1.6-1.8c-0.5-0.5-0.8-1.3-0.3-0.9C77.2,31.3,77.8,31.6,78.4,31.9 M89.3,34.9c0.1,0.2,0.3,0.6,0.5,1
		c0.4,0.6,0.4,0.7,0.1,0.9s-0.3,0.2-0.4-0.2c-0.1-0.2-0.4-0.7-0.6-1.1c-0.4-0.7-0.5-1.2,0-1.1C89,34.5,89.2,34.7,89.3,34.9
		 M14.8,34.8c0,0.1-0.1,0.5-0.2,0.7c-0.1,0.2-0.4,0.8-0.5,1.2c-0.3,0.9-0.5,1-0.6,0.4c-0.1-0.5,0.2-1.2,0.9-2.4
		C14.6,34.4,14.8,34.4,14.8,34.8 M43.1,35c-0.8,0.5-0.2,0.9,1.4,1c1.3,0.1,1.6-0.2,0.9-0.8C44.9,34.8,43.7,34.7,43.1,35 M58.5,35
		c-0.5,0.3-0.8,0.7-0.6,0.9c0.3,0.3,2.6,0,2.8-0.3C61.2,35,59.5,34.5,58.5,35 M18,35.3c0.1,0.3-0.4,1.4-1.4,3
		c-0.6,1.1-0.6,1.1-1,0.9c-0.8-0.5-0.5-2.4,0.5-4C16.2,34.9,17.9,35,18,35.3 M86.2,35.3c0.2,0.2,0.3,0.4,0.3,0.5s0.1,0.2,0.3,0.2
		c0.2,0,0.2-0.1,0.2-0.4c-0.1-0.6,0.3-0.5,0.9,0.3c0.6,0.9,0.7,2.5,0.1,3.1c-0.4,0.6-0.5,0.5-1.3-0.9C85.4,35.6,85.2,34.4,86.2,35.3
		 M46.7,36.2c-0.4,0.2,0.5,0.5,1.7,0.5c0.7,0,1-0.1,1-0.2C49.3,36,47.2,35.8,46.7,36.2 M54.8,36.1c-0.3,0-0.4,0.2-0.4,0.3
		c0.1,0.2,2.5,0.3,2.7,0.1C57.5,36.1,56.2,35.9,54.8,36.1 M78.3,39.9c0.2,0.4,1.4,1.6,2.5,2.7c1.1,1.1,2.1,2.1,2.1,2.2
		c0,0.3-0.4,0.2-1-0.3c-1.5-1.3-1.6,0.2-0.1,2.2c0.5,0.7,1.1,1.5,1.3,1.9c0.2,0.4,0.5,0.7,0.6,0.8c0.2,0.1,0.2,0.4,0,0.4
		c-0.1,0-0.7-0.6-1.5-1.3c-1.6-1.5-2.4-2.9-3-5.3c-0.5-1.9-0.6-2.1-1.2-2.9c-0.5-0.5-0.6-1.2-0.3-1.2C77.8,39.2,78,39.5,78.3,39.9
		 M25.7,40c-0.1,0.2-0.3,0.4-0.4,0.4c-0.2,0-0.2-0.1,0-0.5c0.2-0.3,0.3-0.5,0.4-0.4C25.8,39.6,25.8,39.7,25.7,40 M24.9,41
		c0.1,0.2-0.8,2.3-1.2,2.7c-0.2,0.2-0.2,0.4,0,0.7c0.2,0.4-0.1,1.4-0.5,1.7c-0.1,0.1-0.2,0.2-0.2,0.4c0,0.6-2.8,3.5-3.2,3.3
		c-0.2-0.2-0.1-0.4,0.5-1.1c2.8-3.1,3.9-6.2,1.4-4.2c-0.6,0.5-0.9,0.6-0.9,0.2c0-0.2,3.7-3.8,3.9-3.8C24.8,40.8,24.9,40.9,24.9,41
		 M38.8,41.9c-2.6,0.6-3.2,1.1-3.8,2.5c-0.2,0.5-0.4,1-0.5,1.1s-0.1,0.5,0,0.9c0.1,0.6,0,0.8-0.2,1.1c-0.6,0.7-0.3,1.3,0.4,0.8
		c0.2-0.1,0.6-0.3,0.9-0.3c0.5,0,0.7,0.1,2.1,1.1l0.7,0.5l3.3,0.1c1.8,0.1,3.4,0.2,3.6,0.2c0.5,0.2,0.5-0.5,0.1-1
		c-0.1-0.2-0.2-0.5-0.2-0.7c0-0.3-0.5-0.9-1.6-2L42,44.6h-1.5c-1.4,0-1.6,0-2.2,0.4c-0.8,0.5-0.9,0.5-0.4-0.3
		c0.3-0.4,0.7-0.7,1.2-0.9c1.2-0.5,1.5-0.5,2-0.2c0.3,0.1,0.7,0.3,0.9,0.3c0.5,0,1.7,0.6,2,1c0.1,0.2,0.4,0.4,0.7,0.5
		c0.5,0.2,1.1,1.2,1.2,2.2c0.2,1.2,0.5,1.8,1.1,1.8c0.3,0,0.5,0.1,0.6,0.3s0.3,0.5,0.5,0.8s0.4,0.8,0.5,1.3c0.2,1.2,0.3,1.4,0.6,1.4
		c0.4,0,0.7-0.5,0.7-1.3c0-0.4,0.1-0.7,0.2-0.8c0.4-0.1,0.3-0.9-0.1-1.6c-1-1.7-1.5-2.8-0.9-2.3c0.4,0.3,0.5,0,0.5-1.2
		c0-1.3-0.2-1.7-0.8-1.4c-0.4,0.2-0.7,0.1-0.7-0.2c0-0.5-1.4-1.8-2-1.8c-0.4,0-0.2,0.8,0.3,1.2c0.3,0.3,0.5,0.6,0.5,0.7
		s-0.6-0.4-1.4-1.1C42.9,41.5,41.8,41.2,38.8,41.9 M60.6,41.8c-0.3,0.2-1,0.7-1.6,1.3c-0.6,0.5-1.1,1-1.2,1c-0.3,0-0.4-0.5-0.1-0.7
		c0.1-0.1,0.1-0.3,0.1-0.3c-0.3-0.2-1.2,0.4-1.8,1.1c-0.5,0.6-0.7,0.8-1.1,0.8c-0.8,0-1.2,2.2-0.6,3.1c0.4,0.5,0.3,0.9-0.3,1.9
		s-0.7,1.2-0.3,1.3c0.2,0.1,0.2,0.3,0.2,0.9c0,0.9,0.2,1.5,0.6,1.5c0.3,0,0.6-0.7,0.6-1.4c0-0.3,0.1-0.7,0.3-0.8
		c0.2-0.2,0.3-0.5,0.3-0.7c0-0.4,0.3-0.8,0.7-0.8c0.8,0,1.2-0.7,1.1-1.8l-0.1-1.1l1-0.8c0.5-0.5,1.1-0.8,1.2-0.8
		c0.2,0,0.4-0.1,0.6-0.3c1.2-1.3,4.9-1.1,5.8,0.3c0.2,0.4-0.1,0.4-0.6,0c-1.5-1.1-4.3-0.2-5.7,1.7c-0.3,0.4-0.8,1-1.1,1.4
		C58.1,48.7,58,49,58,49.3l0.1,0.4h3.3h3.3l1-0.6c1.2-0.7,2.4-1,2.9-0.7c1,0.6,1.3-0.1,0.5-1c-0.3-0.3-0.5-0.6-0.5-0.7
		c0-0.1,0.2-0.2,0.5-0.2c0.6,0,0.7-0.4,0.1-0.7c-0.3-0.2-0.5-0.7-0.8-1.4c-0.4-1.2-1.2-1.9-2.9-2.5C64.3,41.5,61.3,41.4,60.6,41.8
		 M24.3,46.9c0,0.8-2.1,3.9-2.6,3.9c-0.3,0-0.3-0.3,0.2-0.8c0.5-0.6,1.6-2.6,1.6-3c0-0.3,0.5-0.7,0.7-0.6
		C24.3,46.5,24.3,46.7,24.3,46.9 M40.5,46.7c0.3,0.3,0.2,0.6-0.2,0.9C40,47.8,39.9,48,40,48.3c0.1,0.5,0,0.5-0.6,0.1
		c-0.2-0.2-0.8-0.3-1.2-0.4c-0.9-0.1-1-0.4-0.5-1C38.4,46.4,39.9,46.2,40.5,46.7 M65.7,46.8c0.6,0.5,0.2,1.6-0.5,1.2
		c-0.2-0.1-0.4-0.1-0.9,0.3c-0.9,0.7-1.1,0.4-0.6-0.5c0.2-0.4,0.4-0.9,0.4-1C64.2,46.4,65.3,46.4,65.7,46.8 M62.5,46.8
		c0.3,0.2,0.1,0.7-0.4,0.7s-0.7-0.2-0.5-0.6C61.7,46.6,62.1,46.6,62.5,46.8 M80,47.4c0.2,0.4,0.6,1,0.7,1.4c0.2,0.4,0.5,0.9,0.8,1.2
		c0.5,0.5,0.6,0.7,0.3,0.7c-0.7,0-2.9-3.3-2.5-3.8C79.4,46.5,79.6,46.6,80,47.4 M26.8,50.4c0.1,0.2,0,1-0.2,1.7
		c-0.3,1.5-0.3,1.7,0.3,1.1l0.4-0.4v0.5c0,0.9-1.9,3.2-2.6,3c-1.1-0.4-1.1-2.8-0.1-3.8c0.4-0.4,1-1.1,1.2-1.6
		C26.4,49.9,26.6,49.8,26.8,50.4 M77.6,50.9c0.2,0.8,0.9,1.5,2.2,2.5c1.8,1.4,2.5,1.8,3.5,2.3c0.9,0.4,1.2,0.8,0.6,0.8
		c-0.4,0-1.4-0.4-1.7-0.6c-0.1-0.1-0.8-0.5-1.4-0.9c-1.6-0.9-3-2.2-3-2.9c0-0.1-0.1-0.2-0.2-0.2s-0.2-0.1-0.2-0.2
		c0-0.1-0.2-0.4-0.3-0.5c-0.2-0.2-0.3-0.5-0.3-0.7C76.8,49.9,77.4,50.1,77.6,50.9 M56.6,52.1c-0.2,0.2-0.1,1.6,0.2,2.1
		c0.4,0.5,0.4,0.8,0,1c-0.3,0.2-0.3,0.2,0,0.4s0.4,0.2,0.6,0c0.2-0.2,0.5-0.2,1-0.1c0.8,0.1,0.9,0,0.4-0.5c-0.3-0.3-0.3-0.3,0-0.5
		s0.3-0.3-0.8-1.3C57.1,52,56.9,51.9,56.6,52.1 M45.5,52.8C44.2,53.7,43.3,55,44,55c0.1,0,0.3-0.1,0.4-0.3c0.2-0.4,0.7-0.2,0.7,0.4
		c0,0.4,0,0.4,0.5,0.3c0.3-0.1,0.5,0,0.5,0.1c0,0.3,0.5,0.2,0.7-0.1s0.2-2.3,0.1-2.7C46.6,52.2,46.3,52.3,45.5,52.8 M83.1,53.2
		c0.5,0.5,0.5,0.6,0.1,0.6c-0.3,0-0.8-0.6-0.8-0.9C82.3,52.7,82.7,52.8,83.1,53.2 M77.3,53.8c0.6,0.8,2.7,2.6,3.2,2.8
		c0.2,0.1,0.3,0.2,0.3,0.3c0,0.2-0.5,0.2-0.9-0.1c-0.2-0.1-0.4-0.2-0.5-0.2c-0.8,0-2.7-1.6-2.7-2.3c0-0.2-0.1-0.4-0.2-0.6
		c-0.1-0.1-0.2-0.3-0.2-0.4C76.2,52.8,76.8,53.1,77.3,53.8 M20.8,53.3c0,0.2-0.4,0.5-0.6,0.5c-0.3,0-0.3-0.4,0-0.6
		C20.5,53.1,20.8,53.2,20.8,53.3 M16.8,54.3c0,0.1-0.1,0.3-0.2,0.6c-0.4,0.6-0.5,1.8-0.2,2.3c0.2,0.3,0.2,0.4,0.1,0.4
		s-0.2,0.1-0.2,0.2c0,0.3-2.7,2.8-2.8,2.5c0-0.1,0.3-0.8,0.7-1.5c1.2-2.1,1.5-3.1,1-3.3c-0.1,0,0.1-0.3,0.5-0.8
		C16.6,54.2,16.8,54,16.8,54.3 M87.6,54.8c0.7,0.7,0.9,1.1,0.5,1.7c-0.1,0.2-0.1,0.3,0,0.4c0.1,0.1,0.2,0.2,0.2,0.4s0.1,0.3,0.1,0.3
		c0.1,0,0.2,0.2,0.3,0.5s0.3,0.7,0.5,0.9c0.3,0.4,0.3,0.5,0,0.7c-0.2,0.2-0.4,0.1-1.4-1l-1.2-1.3l0.4-0.3c0.5-0.4,0.5-0.6-0.1-1.8
		C86.4,53.9,86.5,53.8,87.6,54.8 M51.5,56c-0.3,0.3-0.4,0.4-0.2,0.6c0.3,0.4,1.6,0.3,1.7-0.1C53.1,55.7,52.1,55.5,51.5,56
		 M78.2,57.6c0.2,0.2,0.9,0.4,1.4,0.6c0.6,0.1,1.2,0.4,1.5,0.5s0.7,0.2,0.9,0.3c1.1,0.2,5,3.4,5,4.1c0,0.4-0.3,0.5-0.5,0.1
		c-0.1-0.2-0.5-0.5-0.8-0.7s-1-0.7-1.5-1.2c-0.8-0.8-1.7-1.3-2.5-1.6c-0.2-0.1-0.7-0.3-1-0.5s-0.8-0.4-1.1-0.5
		c-0.6-0.1-2.1-1.1-2.1-1.3C77.5,57.3,77.7,57.3,78.2,57.6 M23.2,58.9c-1.6,2.2-4.1,5.2-4.2,5c-0.1-0.2,0.5-1.4,1.7-3.5
		c0.7-1.2,0.8-1.4,1.8-1.9C23.9,57.8,24,57.9,23.2,58.9 M25.9,59.8c-0.1,0.4-0.1,0.4,0.4,0.3c0.3-0.1,0.4-0.1,0.4,0.1
		c0,0.3-1,1-1.5,1.1s-1.9,1-3.5,2.4c-0.7,0.6-1.4,1.1-1.6,1.2s-0.6,0.4-0.8,0.6c-0.3,0.3-1.1,0.7-1.1,0.5c0-0.1,0.6-0.8,1.5-1.7
		c0.5-0.5,1.3-1.3,2.4-2.1c0.5-0.4,1.5-1.2,2.2-1.8C25.5,59.2,26,59.1,25.9,59.8 M79.1,60.3c1.6,1.1,6.4,5.4,6.4,5.8
		c0,0.5-0.6,0.1-3-1.9c-0.8-0.6-1.8-1.3-2.2-1.6c-0.5-0.2-1-0.5-1.2-0.7s-0.8-0.6-1.4-0.9c-1.1-0.7-1.3-1-0.6-1.2
		c0.2-0.1,0.4-0.2,0.4-0.3C77.5,59.2,77.8,59.4,79.1,60.3 M47.2,63.6c0,1.5,1.6,3.2,3,3.2c1.5,0,1-1.4-0.7-2.2
		c-1.1-0.5-1.3-0.7-1.7-1.3C47.4,62.6,47.2,62.7,47.2,63.6 M55.6,63.4c-0.3,0.5-0.6,0.7-1.6,1.2c-1.4,0.6-1.6,0.9-1.4,1.8
		c0.3,1,2.7-0.1,3.4-1.5S56.3,62.1,55.6,63.4 M26.1,63.8c0.2,0,0.4,0.1,0.4,0.2c0,0.2-1,1.2-1.3,1.2c-0.1,0-0.5,0.2-0.8,0.4
		c-0.5,0.4-1.2,0.6-1.2,0.3c0-0.1,1.4-1.9,1.9-2.5l0.5-0.5l0.1,0.4C25.7,63.6,25.9,63.8,26.1,63.8 M79,64.2c0.2,0.3,0.6,0.8,0.9,1.1
		c0.6,0.7,0.4,1.2-0.3,0.6c-0.3-0.2-0.7-0.5-1.1-0.6c-0.9-0.4-1.5-1.1-1.3-1.4C77.6,63.5,78.5,63.6,79,64.2 M27.5,65.7
		c0,0.1-0.1,0.2-0.2,0.3c-0.1,0.1-0.3,0.4-0.4,0.7c-0.2,0.8-1.2,1.5-3.2,2.4c-3.5,1.5-4.6,1.9-4.3,1.2c0.2-0.4,1-0.9,1.6-0.9
		c0.3,0,0.7-0.2,1-0.4c0.3-0.2,0.7-0.4,0.8-0.4c0.9,0,1.3-0.6,0.8-1.2c-0.3-0.4-0.2-0.6,0.4-0.6c0.2,0,0.4-0.1,0.5-0.2
		s0.5-0.3,1-0.4s1-0.4,1.2-0.5C27,65.5,27.5,65.4,27.5,65.7 M77.9,66.1c0.8,0.3,1.6,0.7,1.9,0.8c0.7,0.2,0.7,0.5,0.1,0.7
		c-0.3,0.1-0.5,0.3-0.4,0.4c0.1,0.2,2.7,1.4,3.8,1.7c1,0.3,1.8,0.7,1.8,1c0,0.4-1.7-0.1-3.1-0.7c-0.7-0.4-1.6-0.7-2-0.8
		c-1.3-0.2-3.3-1.9-3.3-2.8c0-0.2-0.1-0.4-0.3-0.4c-0.4-0.1-0.5-0.5-0.1-0.5C76.4,65.5,77.1,65.8,77.9,66.1 M33.3,66.8
		c0.1,0.2-1.9,2.3-2.5,2.6c-0.4,0.2-1,0.7-2.4,1.9c-1,0.9-1.7,2-1.3,2c0.2,0,2.6-1.3,3.4-1.8c1.2-0.8,1.7-0.7,1,0.2
		c-0.6,0.7-1.8,1.5-2.3,1.5c-0.2,0-0.6,0.1-0.9,0.3c-0.3,0.1-0.6,0.2-0.7,0.2s-0.4,0-0.5,0.1c-0.4,0.2-0.6,0.2-0.8-0.3
		c-0.2-0.7,1.5-2.7,3.6-4.3c0.8-0.6,1.7-1.4,1.9-1.6c0.2-0.3,0.5-0.5,0.6-0.5s0.3-0.1,0.3-0.3C32.9,66.5,33.2,66.5,33.3,66.8
		 M73.8,69.3c1.2,0.8,2.1,1.7,2.5,2.4c0.1,0.3,0.4,0.7,0.6,1s0.4,0.6,0.4,0.7s0.1,0.4,0.2,0.7c0.3,0.5,0.1,0.8-0.4,0.4
		s-1.9-1.1-2.6-1.2c-1.1-0.2-3.4-1.9-3.4-2.5c0-0.1-0.2-0.3-0.3-0.5c-0.2-0.2-0.3-0.4-0.3-0.5c0-0.3,0.4-0.1,1,0.5
		c0.5,0.6,2.9,2.2,3.3,2.2c0.1,0,0.3,0.2,0.5,0.4c0.4,0.4,0.6,0.5,1.1,0.3c0.4-0.1,0.3-0.7-0.1-0.8c-0.2-0.1-0.5-0.3-0.6-0.5
		c-0.5-0.6-2.1-2-3.1-2.7c-1.5-1-2.3-1.9-2.2-2.4c0.1-0.4,0.1-0.4,1.2,0.6C72.2,68.1,73.2,68.9,73.8,69.3 M33,69.7
		c0,0.5-0.8,1.2-0.9,0.9c-0.1-0.2,0-0.4,0.3-0.7C32.9,69.4,33,69.4,33,69.7 M33.2,72.3c0,0.3-0.7,1.5-1.1,1.9
		c-0.2,0.2-0.4,0.5-0.4,0.6c0,0.7-1.6,2.3-3.4,3.4c-0.6,0.4-1.1,0.8-1.1,0.9c0,0.4-0.7,0.5-1.2,0.2c-0.6-0.4-0.8-0.7-0.4-1.1
		c0.1-0.1,0.4-0.4,0.5-0.5c0.4-0.5,1.9-1.7,2.5-1.9c0.8-0.3,2.1-1.3,3.2-2.5C32.5,72.3,33.2,71.9,33.2,72.3 M72.2,73.5
		c0.8,0.7,1.7,1.4,2.4,1.8c1.4,0.7,3.6,2.8,3.6,3.4c0,0.8-1.6,0.5-2.6-0.6c-0.3-0.3-0.9-0.6-1.3-0.8c-0.6-0.2-0.9-0.4-1.5-1.2
		c-0.4-0.5-0.7-0.9-0.8-1c-0.1-0.1-0.2-0.2-0.2-0.4c0-0.2-0.3-0.7-0.7-1.2C69.8,72,70.4,71.9,72.2,73.5 M26.1,74.7
		c-0.1,0.2-0.8,0.2-0.8,0.1s0.1-0.3,0.3-0.4C25.9,74,26.3,74.3,26.1,74.7 M40.6,78.3c-0.2,0.2-0.1,1,0.1,1.2
		c0.3,0.2,0.7-0.4,0.6-0.8C41.2,78.2,40.8,78.1,40.6,78.3 M62.4,78.4c-0.2,0.4,0,1,0.3,1.1c0.4,0.1,0.5-0.5,0.3-1
		C62.8,78.1,62.5,78.1,62.4,78.4 M51.4,78.6c-0.5,0.5-0.3,1.2,0.3,1.2s0.8-0.5,0.3-1.1C51.7,78.3,51.7,78.3,51.4,78.6 M42.2,78.9
		c-0.1,0.5,0,0.8,0.4,0.8c0.3,0,0.5-0.4,0.2-0.8C42.6,78.4,42.4,78.4,42.2,78.9 M47.8,78.6c-0.2,0.2-0.1,1.6,0,1.6
		c0.3,0,0.5-0.4,0.5-0.8C48.3,78.9,48,78.4,47.8,78.6 M60.7,79c-0.2,0.5-0.1,0.7,0.3,0.7c0.4,0,0.5-0.2,0.3-0.7
		C61.1,78.4,60.9,78.4,60.7,79 M55.3,78.9c-0.2,0.3,0,1.1,0.3,1.2c0.1,0,0.2-0.2,0.2-0.7C55.8,78.6,55.7,78.5,55.3,78.9 M33,79.5
		c0,0.8-0.4,1.8-0.9,2.2c-0.4,0.3-0.8,0.4-0.5,0.1c0.1-0.1,0.2-0.4,0.2-0.7c0-0.6,0.7-2.2,1-2.2C32.9,78.8,33,79.1,33,79.5 M71.3,80
		c0.3,0.7,0.6,1.4,0.6,1.6c0.1,0.2,0.2,0.4,0.3,0.5c0.3,0.1,0.3,0.8,0.1,0.8c-0.1,0-0.2-0.2-0.4-0.4c-0.1-0.2-0.4-0.5-0.6-0.7
		c-0.4-0.3-0.8-1.2-1-2.4C70.2,78.4,70.7,78.8,71.3,80 M25.1,79.9c-0.1,0.2-0.4,0.4-0.4,0.2c0-0.2,0.2-0.6,0.3-0.5
		C25.1,79.6,25.1,79.8,25.1,79.9 M38.6,80.7c0.6,0.4,1.3,0.8,1.7,0.8c0.2,0,0.5,0.1,0.7,0.3c0.2,0.2,0.8,0.4,1.2,0.4
		c0.5,0.1,1.1,0.2,1.5,0.4c1.2,0.4,16.2,0.2,17.6-0.2c0.6-0.2,1.3-0.4,1.5-0.4c0.7,0,1.6-0.4,2.9-1.4c0.6-0.4,1.2-0.8,1.2-0.8
		c0.3,0-1.5,2-2,2.2c-0.3,0.1-0.4,0.8-0.1,0.8c0.1,0,0.3-0.1,0.4-0.3c0.4-0.4,0.8,0.1,0.7,0.7c-0.1,0.2-0.1,0.7-0.2,1.1
		c-0.1,1-0.2,1-0.9,0c-0.7-1-1.2-0.7-1.2,0.8c0,0.7-0.1,1.3-0.3,1.7c-0.2,0.4-0.3,1-0.3,1.6c0,0.8-0.2,1.5-0.4,1.3
		c-0.2-0.3-0.5-1.1-0.5-1.5c0-1.4-0.6-1.7-0.9-0.5c-0.2,0.9-0.5,0.9-0.9,0c-0.4-1-0.7-1.1-0.7-0.2c0,0.6-0.1,0.7-0.3,0.7
		c-0.8,0-0.7-1.4,0.2-1.6c0.2,0,0.4-0.3,0.5-0.6c0.1-0.3,0.4-0.6,0.6-0.7c0.6-0.2,1.1-0.6,1.1-0.8c0-0.3-1.1-0.1-1.9,0.3
		c-3.6,2-14.4,1.5-17.9-0.8c-0.4,0-0.9-0.1-0.9,0.2c0,0.1,0.4,0.4,1,0.7c0.8,0.4,1,0.7,1.3,1.2c0.2,0.5,0.4,0.6,0.6,0.6
		c0.4-0.1,0.7,0.6,0.6,1.2c-0.1,0.6-0.6,0.6-0.6,0c0-0.2-0.1-0.5-0.2-0.5c-0.2-0.1-0.6,0.4-0.7,0.9c0,1-0.6,0.6-0.8-0.5
		s-0.6-1-0.8,0.4c-0.3,1.9-0.8,1.8-1,0c-0.4-3.5-1.3-4.8-2.1-3.2c-0.4,0.9-0.5,0.7-0.5-0.8s0.1-1.8,0.5-1.6c0.3,0.2,0.5,0.1,0.5-0.3
		c0-0.1-0.1-0.2-0.3-0.2s-0.4-0.2-0.6-0.4c-0.1-0.2-0.5-0.7-0.9-1C35.8,79.4,36.8,79.5,38.6,80.7 M34.1,81.7c0,0.1-0.2,0.3-0.4,0.3
		c-0.4,0.1-0.5-0.1-0.2-0.4C33.8,81.3,34.1,81.4,34.1,81.7 M33.3,82.6c0,0.1-0.2,0.7-0.5,1.2c-0.4,0.8-0.5,1.2-0.5,2.1
		c0,1.2-0.1,1.7-0.4,1.5c-0.4-0.2-0.2-3.3,0.3-4.2C32.7,82.4,33.3,82,33.3,82.6 M63.8,83.4c0,0.1,0.1,0.2,0.2,0.2
		c0.3-0.1,0.4-0.5,0.1-0.5C64,83.2,63.8,83.3,63.8,83.4 M62.4,84c-0.1,0.1,0.1,0.2,0.2,0.2c0.2,0,0.3-0.1,0.3-0.2s-0.1-0.2-0.2-0.2
		S62.5,83.9,62.4,84 M37.9,86.2c-0.1,0.5,0.4,3.6,0.6,3.9c0.1,0.1,0.1,0.3,0.1,0.3c-0.1,0.1-0.5-0.3-1-1.3c-0.5-0.9-0.5-2.2-0.1-2.9
		C37.9,85.7,38,85.7,37.9,86.2 M66.3,86.8c0.1,0.3-0.2,2.6-0.4,2.7c-0.1,0.1-0.3,0.4-0.4,0.7c-0.4,0.8-0.6,0.4-0.3-0.7
		c0.1-0.5,0.2-1.2,0.2-1.5C65.3,86.8,66,86,66.3,86.8 M46.7,88.6c0.9,0.3,1.3,3.6,0.5,4.6c-0.3,0.3-0.4,0.8-0.5,1.3
		c-0.1,0.9-0.3,0.9-0.6,0c-0.1-0.4-0.5-1.3-0.8-1.9c-0.7-1.6-0.3-2.3,0.6-0.8c0.7,1.1,0.9,0,0.4-1.9c-0.1-0.5-0.2-1-0.1-1.1
		C46.4,88.5,46.4,88.5,46.7,88.6 M57.4,88.7c0,0.1-0.1,0.9-0.3,1.7c-0.4,1.8-0.3,2.6,0.3,1.4c0.5-1,1.5-1.1,1-0.2
		c-0.4,0.8-0.8,2-1,2.4c-0.3,1.1-1,0.9-0.8-0.3c0.1-0.4,0.1-0.5-0.2-0.5c-0.7,0-0.8-2.6-0.1-4.2C56.5,88.5,57.2,88.3,57.4,88.7
		 M54.7,89.3c0.1,0.2-0.1,0.8-0.2,1.3c-0.2,0.6-0.4,1.4-0.4,1.9c-0.2,1.8-0.5,3.1-0.8,3.7L53,96.9l-0.3-0.4C52.3,96,51.6,96,51,96.6
		l-0.4,0.3l-0.2-0.5c-0.2-0.4-0.5-1.8-1-4.1c-0.1-0.5-0.2-1.2-0.3-1.6c-0.2-1.1-0.2-1.5,0.1-1.4s1.2,1.5,1.3,2.1
		c0.1,0.4,0.2,0.5,0.5,0.4c0.3,0,0.4,0.1,0.6,0.7c0.3,1,0.5,0.9,0.8-0.2c0-0.1,0.2-0.2,0.4-0.2s0.3-0.1,0.3-0.5
		c0-0.3,0.2-0.7,0.4-0.9c0.2-0.3,0.5-0.7,0.7-1.1C54.2,89,54.6,88.8,54.7,89.3"/>
</g>
</svg>
