<svg xmlns="http://www.w3.org/2000/svg" viewBox="0 0 32 32">
  <circle cx="16" cy="16" r="16" fill="#1e3a5f"/>
  <!-- Trophy cup body -->
  <path d="M11 7h10v7a5 5 0 01-10 0V7z" fill="#f59e0b"/>
  <!-- Trophy handles -->
  <path d="M11 9H9a2 2 0 000 4h2" fill="none" stroke="#f59e0b" stroke-width="1.5" stroke-linecap="round"/>
  <path d="M21 9h2a2 2 0 010 4h-2" fill="none" stroke="#f59e0b" stroke-width="1.5" stroke-linecap="round"/>
  <!-- Trophy stem -->
  <rect x="14.5" y="19" width="3" height="3.5" fill="#f59e0b"/>
  <!-- Trophy base -->
  <rect x="11.5" y="22.5" width="9" height="2" rx="1" fill="#f59e0b"/>
  <!-- Star on cup -->
  <path d="M16 9l0.9 1.8 2 0.3-1.45 1.4 0.34 2-1.79-0.94-1.79 0.94 0.34-2-1.45-1.4 2-0.3z" fill="#1e3a5f"/>
</svg>
